<svg xmlns="http://www.w3.org/2000/svg" xmlns:xlink="http://www.w3.org/1999/xlink" width="121" height="121" fill="none" viewBox="0 0 121 121"><linearGradient id="a" x1="66.984" x2="30.462" y1="85.995" y2="23.689" gradientUnits="userSpaceOnUse"><stop offset="0" stop-color="#2535c5"/><stop offset=".17" stop-color="#36409b"/><stop offset=".576" stop-color="#475bc6"/><stop offset="1" stop-color="#7075e4"/></linearGradient><linearGradient id="b" x1="93.244" x2="93.244" y1="29.766" y2="91.396" gradientUnits="userSpaceOnUse"><stop offset="0" stop-color="#375ad8"/><stop offset=".473" stop-color="#3c56dd"/><stop offset="1" stop-color="#2a1a8f"/></linearGradient><linearGradient id="c" x1="57.147" x2="57.147" y1="29.766" y2="92.012" gradientUnits="userSpaceOnUse"><stop offset="0" stop-color="#233593"/><stop offset=".473" stop-color="#4957d7"/><stop offset=".891" stop-color="#5465ff"/><stop offset="1" stop-color="#6a67ff"/></linearGradient><linearGradient id="d" x1="25.273" x2="33.9" y1="40.312" y2="29.514" gradientUnits="userSpaceOnUse"><stop offset="0" stop-color="#3a4a9c"/><stop offset=".327" stop-color="#475bc6"/><stop offset="1" stop-color="#7090e4"/></linearGradient><linearGradient id="e" x1="93.675" x2="85.335" y1="81.633" y2="91.546" gradientUnits="userSpaceOnUse"><stop offset="0" stop-color="#2d3792"/><stop offset=".194" stop-color="#3f2bb8"/><stop offset="1" stop-color="#3c38ff"/></linearGradient><path fill="#fff" d="m.094372.88858h120v120h-120z"/><path fill="url(#a)" d="m61.1975 46.5119v19.087c0 8.8917-5.3768 14.2622-13.5276 14.2622-8.1517 0-13.8742-5.3705-13.8742-14.2622v-35.8333h-13.7013v35.8333c0 16.2876 10.7519 26.4126 27.5755 26.4126 16.7359 0 27.2291-10.125 27.2291-26.4126v-35.8333h-.2407c-7.2256 2.3555-12.616 8.8561-13.4608 16.7463z"/><path fill="url(#b)" d="m86.6281 29.7656h-.2354v61.6305h13.7013v-44.8718c-.129-6.8489-6.2361-14.4017-13.4659-16.7587z"/><path fill="url(#c)" d="m61.1975 46.5119v19.087c0 .0114-.0008.0228-.0008.0356.0032.1897.0134.3781.0134.5693 0 12.8546-9.5357 23.4422-21.8149 24.8848 2.5555.6044 5.3196.9229 8.2746.9229 16.736 0 27.2292-10.125 27.2292-26.4126v-35.8333h-.2407c-7.2256 2.3555-12.616 8.8561-13.4608 16.7463z"/><path fill="url(#d)" d="m33.7957 46.5428v-16.7772h-13.7013v.0027c7.2845 2.3597 12.7432 8.8589 13.7013 16.7745z"/><path fill="url(#e)" d="m86.3927 73.1325v18.2635h13.5344c-7.5474-2.7041-13.0516-9.7985-13.5344-18.2635z"/></svg>