<svg xmlns="http://www.w3.org/2000/svg" width="72" height="72" fill="none" viewBox="0 0 72 72"><circle cx="36" cy="36" r="36" fill="url(#paint0_linear_2332_15336)"/><g filter="url(#filter0_dd_2332_15336)"><path fill="url(#paint1_linear_2332_15336)" d="M52.7861 31.1429C52.7861 37.8492 47.3495 43.2857 40.6432 43.2857C33.9369 43.2857 28.5004 37.8492 28.5004 31.1429C28.5004 24.4365 33.9369 19 40.6432 19C47.3495 19 52.7861 24.4365 52.7861 31.1429Z"/><path fill="url(#paint2_linear_2332_15336)" d="M32.1429 46.9287C32.1429 50.2819 29.4246 53.0002 26.0714 53.0002C22.7183 53.0002 20 50.2819 20 46.9287C20 43.5756 22.7183 40.8573 26.0714 40.8573C29.4246 40.8573 32.1429 43.5756 32.1429 46.9287Z"/></g><defs><filter id="filter0_dd_2332_15336" width="40.786" height="42" x="16" y="14" color-interpolation-filters="sRGB" filterUnits="userSpaceOnUse"><feFlood flood-opacity="0" result="BackgroundImageFix"/><feColorMatrix in="SourceAlpha" result="hardAlpha" type="matrix" values="0 0 0 0 0 0 0 0 0 0 0 0 0 0 0 0 0 0 127 0"/><feOffset dy="1"/><feGaussianBlur stdDeviation="1"/><feComposite in2="hardAlpha" operator="out"/><feColorMatrix type="matrix" values="0 0 0 0 0 0 0 0 0 0 0 0 0 0 0 0 0 0 0.23 0"/><feBlend in2="BackgroundImageFix" mode="normal" result="effect1_dropShadow_2332_15336"/><feColorMatrix in="SourceAlpha" result="hardAlpha" type="matrix" values="0 0 0 0 0 0 0 0 0 0 0 0 0 0 0 0 0 0 127 0"/><feOffset dy="-1"/><feGaussianBlur stdDeviation="2"/><feComposite in2="hardAlpha" operator="out"/><feColorMatrix type="matrix" values="0 0 0 0 1 0 0 0 0 1 0 0 0 0 1 0 0 0 0.35 0"/><feBlend in2="effect1_dropShadow_2332_15336" mode="normal" result="effect2_dropShadow_2332_15336"/><feBlend in="SourceGraphic" in2="effect2_dropShadow_2332_15336" mode="normal" result="shape"/></filter><linearGradient id="paint0_linear_2332_15336" x1="23" x2="50.5" y1="3.5" y2="69.5" gradientUnits="userSpaceOnUse"><stop stop-color="#946FFF"/><stop offset="1" stop-color="#365CF6"/></linearGradient><linearGradient id="paint1_linear_2332_15336" x1="40.643" x2="40.643" y1="19" y2="61.5" gradientUnits="userSpaceOnUse"><stop stop-color="#fff"/><stop offset="1" stop-color="#fff" stop-opacity="0"/></linearGradient><linearGradient id="paint2_linear_2332_15336" x1="26.071" x2="26.071" y1="21.429" y2="53" gradientUnits="userSpaceOnUse"><stop stop-color="#fff" stop-opacity="0"/><stop offset="1" stop-color="#fff"/></linearGradient></defs></svg>